<mxfile host="app.diagrams.net" modified="2021-02-13T23:08:17.096Z" agent="5.0 (Windows)" etag="E0sxjPFpiuFpH8oq3CB-" version="14.3.1" type="github">
  <diagram id="C5RBs43oDa-KdzZeNtuy" name="Page-1">
    <mxGraphModel dx="3197" dy="2441" grid="1" gridSize="10" guides="1" tooltips="1" connect="1" arrows="1" fold="1" page="1" pageScale="1" pageWidth="827" pageHeight="1169" math="0" shadow="0">
      <root>
        <mxCell id="WIyWlLk6GJQsqaUBKTNV-0" />
        <mxCell id="WIyWlLk6GJQsqaUBKTNV-1" parent="WIyWlLk6GJQsqaUBKTNV-0" />
        <mxCell id="th5yOO53ETZ3JEMIR0LH-46" style="edgeStyle=orthogonalEdgeStyle;rounded=0;orthogonalLoop=1;jettySize=auto;html=1;endArrow=blockThin;endFill=1;" parent="WIyWlLk6GJQsqaUBKTNV-1" source="th5yOO53ETZ3JEMIR0LH-0" target="th5yOO53ETZ3JEMIR0LH-40" edge="1">
          <mxGeometry relative="1" as="geometry">
            <Array as="points">
              <mxPoint x="790" y="735" />
              <mxPoint x="790" y="735" />
            </Array>
          </mxGeometry>
        </mxCell>
        <mxCell id="th5yOO53ETZ3JEMIR0LH-48" value="assets *" style="edgeLabel;html=1;align=center;verticalAlign=middle;resizable=0;points=[];" parent="th5yOO53ETZ3JEMIR0LH-46" vertex="1" connectable="0">
          <mxGeometry x="-0.1926" relative="1" as="geometry">
            <mxPoint x="83" y="-16" as="offset" />
          </mxGeometry>
        </mxCell>
        <mxCell id="th5yOO53ETZ3JEMIR0LH-0" value="Game" style="swimlane;fontStyle=0;align=center;verticalAlign=top;childLayout=stackLayout;horizontal=1;startSize=26;horizontalStack=0;resizeParent=1;resizeLast=0;collapsible=1;marginBottom=0;rounded=0;shadow=0;strokeWidth=1;" parent="WIyWlLk6GJQsqaUBKTNV-1" vertex="1">
          <mxGeometry x="870" y="360" width="410" height="450" as="geometry">
            <mxRectangle x="130" y="380" width="160" height="26" as="alternateBounds" />
          </mxGeometry>
        </mxCell>
        <mxCell id="th5yOO53ETZ3JEMIR0LH-1" value="- windows : SDL_Window*" style="text;align=left;verticalAlign=top;spacingLeft=4;spacingRight=4;overflow=hidden;rotatable=0;points=[[0,0.5],[1,0.5]];portConstraint=eastwest;" parent="th5yOO53ETZ3JEMIR0LH-0" vertex="1">
          <mxGeometry y="26" width="410" height="26" as="geometry" />
        </mxCell>
        <mxCell id="th5yOO53ETZ3JEMIR0LH-2" value="+ renderer : SDL_Renderer*" style="text;align=left;verticalAlign=top;spacingLeft=4;spacingRight=4;overflow=hidden;rotatable=0;points=[[0,0.5],[1,0.5]];portConstraint=eastwest;rounded=0;shadow=0;html=0;fontStyle=4" parent="th5yOO53ETZ3JEMIR0LH-0" vertex="1">
          <mxGeometry y="52" width="410" height="26" as="geometry" />
        </mxCell>
        <mxCell id="th5yOO53ETZ3JEMIR0LH-15" value="+ event: SDL_Event*" style="text;align=left;verticalAlign=top;spacingLeft=4;spacingRight=4;overflow=hidden;rotatable=0;points=[[0,0.5],[1,0.5]];portConstraint=eastwest;rounded=0;shadow=0;html=0;fontStyle=4" parent="th5yOO53ETZ3JEMIR0LH-0" vertex="1">
          <mxGeometry y="78" width="410" height="26" as="geometry" />
        </mxCell>
        <mxCell id="th5yOO53ETZ3JEMIR0LH-17" value="+ isRunning: bool" style="text;align=left;verticalAlign=top;spacingLeft=4;spacingRight=4;overflow=hidden;rotatable=0;points=[[0,0.5],[1,0.5]];portConstraint=eastwest;rounded=0;shadow=0;html=0;fontStyle=4" parent="th5yOO53ETZ3JEMIR0LH-0" vertex="1">
          <mxGeometry y="104" width="410" height="26" as="geometry" />
        </mxCell>
        <mxCell id="th5yOO53ETZ3JEMIR0LH-18" value="+ camera: SDL_Rect" style="text;align=left;verticalAlign=top;spacingLeft=4;spacingRight=4;overflow=hidden;rotatable=0;points=[[0,0.5],[1,0.5]];portConstraint=eastwest;rounded=0;shadow=0;html=0;fontStyle=4" parent="th5yOO53ETZ3JEMIR0LH-0" vertex="1">
          <mxGeometry y="130" width="410" height="26" as="geometry" />
        </mxCell>
        <mxCell id="th5yOO53ETZ3JEMIR0LH-19" value="+ windowSize: Vector2D" style="text;align=left;verticalAlign=top;spacingLeft=4;spacingRight=4;overflow=hidden;rotatable=0;points=[[0,0.5],[1,0.5]];portConstraint=eastwest;rounded=0;shadow=0;html=0;fontStyle=4" parent="th5yOO53ETZ3JEMIR0LH-0" vertex="1">
          <mxGeometry y="156" width="410" height="26" as="geometry" />
        </mxCell>
        <mxCell id="th5yOO53ETZ3JEMIR0LH-20" value="+ currentMapSize: Vector2D" style="text;align=left;verticalAlign=top;spacingLeft=4;spacingRight=4;overflow=hidden;rotatable=0;points=[[0,0.5],[1,0.5]];portConstraint=eastwest;rounded=0;shadow=0;html=0;fontStyle=4" parent="th5yOO53ETZ3JEMIR0LH-0" vertex="1">
          <mxGeometry y="182" width="410" height="26" as="geometry" />
        </mxCell>
        <mxCell id="th5yOO53ETZ3JEMIR0LH-21" value="+ gravityStrength: int" style="text;align=left;verticalAlign=top;spacingLeft=4;spacingRight=4;overflow=hidden;rotatable=0;points=[[0,0.5],[1,0.5]];portConstraint=eastwest;rounded=0;shadow=0;html=0;fontStyle=4" parent="th5yOO53ETZ3JEMIR0LH-0" vertex="1">
          <mxGeometry y="208" width="410" height="26" as="geometry" />
        </mxCell>
        <mxCell id="th5yOO53ETZ3JEMIR0LH-22" value="+ FPS: int" style="text;align=left;verticalAlign=top;spacingLeft=4;spacingRight=4;overflow=hidden;rotatable=0;points=[[0,0.5],[1,0.5]];portConstraint=eastwest;rounded=0;shadow=0;html=0;fontStyle=4" parent="th5yOO53ETZ3JEMIR0LH-0" vertex="1">
          <mxGeometry y="234" width="410" height="26" as="geometry" />
        </mxCell>
        <mxCell id="th5yOO53ETZ3JEMIR0LH-3" value="" style="line;html=1;strokeWidth=1;align=left;verticalAlign=middle;spacingTop=-1;spacingLeft=3;spacingRight=3;rotatable=0;labelPosition=right;points=[];portConstraint=eastwest;" parent="th5yOO53ETZ3JEMIR0LH-0" vertex="1">
          <mxGeometry y="260" width="410" height="8" as="geometry" />
        </mxCell>
        <mxCell id="th5yOO53ETZ3JEMIR0LH-4" value="Game()" style="text;align=left;verticalAlign=top;spacingLeft=4;spacingRight=4;overflow=hidden;rotatable=0;points=[[0,0.5],[1,0.5]];portConstraint=eastwest;fontStyle=0" parent="th5yOO53ETZ3JEMIR0LH-0" vertex="1">
          <mxGeometry y="268" width="410" height="26" as="geometry" />
        </mxCell>
        <mxCell id="th5yOO53ETZ3JEMIR0LH-38" value="init(title : const char*, xpos,ypos,width,height : int, fullscreen : bool)&#xa;" style="text;align=left;verticalAlign=top;spacingLeft=4;spacingRight=4;overflow=hidden;rotatable=0;points=[[0,0.5],[1,0.5]];portConstraint=eastwest;" parent="th5yOO53ETZ3JEMIR0LH-0" vertex="1">
          <mxGeometry y="294" width="410" height="26" as="geometry" />
        </mxCell>
        <mxCell id="th5yOO53ETZ3JEMIR0LH-5" value="update()" style="text;align=left;verticalAlign=top;spacingLeft=4;spacingRight=4;overflow=hidden;rotatable=0;points=[[0,0.5],[1,0.5]];portConstraint=eastwest;" parent="th5yOO53ETZ3JEMIR0LH-0" vertex="1">
          <mxGeometry y="320" width="410" height="26" as="geometry" />
        </mxCell>
        <mxCell id="th5yOO53ETZ3JEMIR0LH-14" value="render()" style="text;align=left;verticalAlign=top;spacingLeft=4;spacingRight=4;overflow=hidden;rotatable=0;points=[[0,0.5],[1,0.5]];portConstraint=eastwest;" parent="th5yOO53ETZ3JEMIR0LH-0" vertex="1">
          <mxGeometry y="346" width="410" height="26" as="geometry" />
        </mxCell>
        <mxCell id="th5yOO53ETZ3JEMIR0LH-12" value="clean()" style="text;align=left;verticalAlign=top;spacingLeft=4;spacingRight=4;overflow=hidden;rotatable=0;points=[[0,0.5],[1,0.5]];portConstraint=eastwest;" parent="th5yOO53ETZ3JEMIR0LH-0" vertex="1">
          <mxGeometry y="372" width="410" height="26" as="geometry" />
        </mxCell>
        <mxCell id="th5yOO53ETZ3JEMIR0LH-13" value="running() : bool" style="text;align=left;verticalAlign=top;spacingLeft=4;spacingRight=4;overflow=hidden;rotatable=0;points=[[0,0.5],[1,0.5]];portConstraint=eastwest;" parent="th5yOO53ETZ3JEMIR0LH-0" vertex="1">
          <mxGeometry y="398" width="410" height="26" as="geometry" />
        </mxCell>
        <mxCell id="th5yOO53ETZ3JEMIR0LH-53" style="edgeStyle=orthogonalEdgeStyle;rounded=0;orthogonalLoop=1;jettySize=auto;html=1;endArrow=blockThin;endFill=1;" parent="WIyWlLk6GJQsqaUBKTNV-1" source="th5yOO53ETZ3JEMIR0LH-24" target="th5yOO53ETZ3JEMIR0LH-50" edge="1">
          <mxGeometry relative="1" as="geometry">
            <Array as="points">
              <mxPoint x="340" y="500" />
              <mxPoint x="340" y="500" />
            </Array>
            <mxPoint x="430" y="490" as="sourcePoint" />
          </mxGeometry>
        </mxCell>
        <mxCell id="th5yOO53ETZ3JEMIR0LH-54" value="manager*" style="edgeLabel;html=1;align=center;verticalAlign=middle;resizable=0;points=[];" parent="th5yOO53ETZ3JEMIR0LH-53" vertex="1" connectable="0">
          <mxGeometry x="0.3544" y="-2" relative="1" as="geometry">
            <mxPoint x="105.42999999999999" y="10.969999999999999" as="offset" />
          </mxGeometry>
        </mxCell>
        <mxCell id="th5yOO53ETZ3JEMIR0LH-24" value="Entity" style="swimlane;fontStyle=0;align=center;verticalAlign=top;childLayout=stackLayout;horizontal=1;startSize=26;horizontalStack=0;resizeParent=1;resizeLast=0;collapsible=1;marginBottom=0;rounded=0;shadow=0;strokeWidth=1;" parent="WIyWlLk6GJQsqaUBKTNV-1" vertex="1">
          <mxGeometry x="490" y="250" width="310" height="268" as="geometry">
            <mxRectangle x="130" y="380" width="160" height="26" as="alternateBounds" />
          </mxGeometry>
        </mxCell>
        <mxCell id="th5yOO53ETZ3JEMIR0LH-55" value="- active : bool" style="text;align=left;verticalAlign=top;spacingLeft=4;spacingRight=4;overflow=hidden;rotatable=0;points=[[0,0.5],[1,0.5]];portConstraint=eastwest;" parent="th5yOO53ETZ3JEMIR0LH-24" vertex="1">
          <mxGeometry y="26" width="310" height="26" as="geometry" />
        </mxCell>
        <mxCell id="th5yOO53ETZ3JEMIR0LH-27" value="" style="line;html=1;strokeWidth=1;align=left;verticalAlign=middle;spacingTop=-1;spacingLeft=3;spacingRight=3;rotatable=0;labelPosition=right;points=[];portConstraint=eastwest;" parent="th5yOO53ETZ3JEMIR0LH-24" vertex="1">
          <mxGeometry y="52" width="310" height="8" as="geometry" />
        </mxCell>
        <mxCell id="th5yOO53ETZ3JEMIR0LH-68" value="+ Entity(mManager : Manager*)" style="text;align=left;verticalAlign=top;spacingLeft=4;spacingRight=4;overflow=hidden;rotatable=0;points=[[0,0.5],[1,0.5]];portConstraint=eastwest;fontStyle=0" parent="th5yOO53ETZ3JEMIR0LH-24" vertex="1">
          <mxGeometry y="60" width="310" height="26" as="geometry" />
        </mxCell>
        <mxCell id="th5yOO53ETZ3JEMIR0LH-70" value="update()" style="text;align=left;verticalAlign=top;spacingLeft=4;spacingRight=4;overflow=hidden;rotatable=0;points=[[0,0.5],[1,0.5]];portConstraint=eastwest;" parent="th5yOO53ETZ3JEMIR0LH-24" vertex="1">
          <mxGeometry y="86" width="310" height="26" as="geometry" />
        </mxCell>
        <mxCell id="th5yOO53ETZ3JEMIR0LH-71" value="draw()" style="text;align=left;verticalAlign=top;spacingLeft=4;spacingRight=4;overflow=hidden;rotatable=0;points=[[0,0.5],[1,0.5]];portConstraint=eastwest;" parent="th5yOO53ETZ3JEMIR0LH-24" vertex="1">
          <mxGeometry y="112" width="310" height="26" as="geometry" />
        </mxCell>
        <mxCell id="th5yOO53ETZ3JEMIR0LH-72" value="destroy()" style="text;align=left;verticalAlign=top;spacingLeft=4;spacingRight=4;overflow=hidden;rotatable=0;points=[[0,0.5],[1,0.5]];portConstraint=eastwest;" parent="th5yOO53ETZ3JEMIR0LH-24" vertex="1">
          <mxGeometry y="138" width="310" height="26" as="geometry" />
        </mxCell>
        <mxCell id="th5yOO53ETZ3JEMIR0LH-74" value="+ hasGroum(mGroup : groupLabels) : bool&#xa;" style="text;align=left;verticalAlign=top;spacingLeft=4;spacingRight=4;overflow=hidden;rotatable=0;points=[[0,0.5],[1,0.5]];portConstraint=eastwest;" parent="th5yOO53ETZ3JEMIR0LH-24" vertex="1">
          <mxGeometry y="164" width="310" height="26" as="geometry" />
        </mxCell>
        <mxCell id="th5yOO53ETZ3JEMIR0LH-73" value="+ delGroup(mGroup : groupLabels)&#xa;" style="text;align=left;verticalAlign=top;spacingLeft=4;spacingRight=4;overflow=hidden;rotatable=0;points=[[0,0.5],[1,0.5]];portConstraint=eastwest;" parent="th5yOO53ETZ3JEMIR0LH-24" vertex="1">
          <mxGeometry y="190" width="310" height="26" as="geometry" />
        </mxCell>
        <mxCell id="th5yOO53ETZ3JEMIR0LH-75" value="+ &lt;T&gt;addComponent(...): Type T&#xa;" style="text;align=left;verticalAlign=top;spacingLeft=4;spacingRight=4;overflow=hidden;rotatable=0;points=[[0,0.5],[1,0.5]];portConstraint=eastwest;" parent="th5yOO53ETZ3JEMIR0LH-24" vertex="1">
          <mxGeometry y="216" width="310" height="26" as="geometry" />
        </mxCell>
        <mxCell id="th5yOO53ETZ3JEMIR0LH-76" value="+ &lt;T&gt;getComponent(...) : Type T&#xa;" style="text;align=left;verticalAlign=top;spacingLeft=4;spacingRight=4;overflow=hidden;rotatable=0;points=[[0,0.5],[1,0.5]];portConstraint=eastwest;" parent="th5yOO53ETZ3JEMIR0LH-24" vertex="1">
          <mxGeometry y="242" width="310" height="26" as="geometry" />
        </mxCell>
        <mxCell id="th5yOO53ETZ3JEMIR0LH-30" style="edgeStyle=orthogonalEdgeStyle;rounded=0;orthogonalLoop=1;jettySize=auto;html=1;" parent="WIyWlLk6GJQsqaUBKTNV-1" source="th5yOO53ETZ3JEMIR0LH-0" target="th5yOO53ETZ3JEMIR0LH-24" edge="1">
          <mxGeometry relative="1" as="geometry">
            <mxPoint x="620" y="500" as="targetPoint" />
            <Array as="points">
              <mxPoint x="645" y="585" />
            </Array>
          </mxGeometry>
        </mxCell>
        <mxCell id="th5yOO53ETZ3JEMIR0LH-31" value="playerPointer *" style="edgeLabel;html=1;align=center;verticalAlign=middle;resizable=0;points=[];" parent="th5yOO53ETZ3JEMIR0LH-30" vertex="1" connectable="0">
          <mxGeometry x="-0.3193" y="5" relative="1" as="geometry">
            <mxPoint x="52.94" y="12.940000000000001" as="offset" />
          </mxGeometry>
        </mxCell>
        <mxCell id="th5yOO53ETZ3JEMIR0LH-32" value="&lt;ENUM&gt; groupLabels" style="swimlane;fontStyle=0;align=center;verticalAlign=top;childLayout=stackLayout;horizontal=1;startSize=26;horizontalStack=0;resizeParent=1;resizeLast=0;collapsible=1;marginBottom=0;rounded=0;shadow=0;strokeWidth=1;" parent="WIyWlLk6GJQsqaUBKTNV-1" vertex="1">
          <mxGeometry x="995" y="170" width="160" height="138" as="geometry">
            <mxRectangle x="130" y="380" width="160" height="26" as="alternateBounds" />
          </mxGeometry>
        </mxCell>
        <mxCell id="th5yOO53ETZ3JEMIR0LH-36" value="    groupMap,&#xa;    groupPlayers,&#xa;    groupEnemies,&#xa;    groupTerrainColliders,&#xa;    groupProjectiles,&#xa;    groupWeapon" style="text;strokeColor=none;fillColor=none;align=left;verticalAlign=top;spacingLeft=4;spacingRight=4;overflow=hidden;rotatable=0;points=[[0,0.5],[1,0.5]];portConstraint=eastwest;" parent="th5yOO53ETZ3JEMIR0LH-32" vertex="1">
          <mxGeometry y="26" width="160" height="94" as="geometry" />
        </mxCell>
        <mxCell id="th5yOO53ETZ3JEMIR0LH-39" value="" style="html=1;verticalAlign=bottom;endArrow=none;dashed=1;endSize=8;endFill=0;" parent="WIyWlLk6GJQsqaUBKTNV-1" source="th5yOO53ETZ3JEMIR0LH-0" target="th5yOO53ETZ3JEMIR0LH-32" edge="1">
          <mxGeometry relative="1" as="geometry">
            <mxPoint x="810" y="330" as="sourcePoint" />
            <mxPoint x="730" y="330" as="targetPoint" />
          </mxGeometry>
        </mxCell>
        <mxCell id="th5yOO53ETZ3JEMIR0LH-40" value="AssetManager" style="swimlane;fontStyle=0;align=center;verticalAlign=top;childLayout=stackLayout;horizontal=1;startSize=26;horizontalStack=0;resizeParent=1;resizeLast=0;collapsible=1;marginBottom=0;rounded=0;shadow=0;strokeWidth=1;" parent="WIyWlLk6GJQsqaUBKTNV-1" vertex="1">
          <mxGeometry x="300" y="640" width="290" height="190" as="geometry">
            <mxRectangle x="130" y="380" width="160" height="26" as="alternateBounds" />
          </mxGeometry>
        </mxCell>
        <mxCell id="th5yOO53ETZ3JEMIR0LH-99" value="- textures: map&lt;string, SDL_Texture*&gt;" style="text;align=left;verticalAlign=top;spacingLeft=4;spacingRight=4;overflow=hidden;rotatable=0;points=[[0,0.5],[1,0.5]];portConstraint=eastwest;" parent="th5yOO53ETZ3JEMIR0LH-40" vertex="1">
          <mxGeometry y="26" width="290" height="26" as="geometry" />
        </mxCell>
        <mxCell id="th5yOO53ETZ3JEMIR0LH-100" value="- animations: map&lt;string, map&lt;string,Animation&gt;&gt;" style="text;align=left;verticalAlign=top;spacingLeft=4;spacingRight=4;overflow=hidden;rotatable=0;points=[[0,0.5],[1,0.5]];portConstraint=eastwest;" parent="th5yOO53ETZ3JEMIR0LH-40" vertex="1">
          <mxGeometry y="52" width="290" height="26" as="geometry" />
        </mxCell>
        <mxCell id="th5yOO53ETZ3JEMIR0LH-101" value="- fonts: map&lt;string, TTF_Font*&gt;" style="text;align=left;verticalAlign=top;spacingLeft=4;spacingRight=4;overflow=hidden;rotatable=0;points=[[0,0.5],[1,0.5]];portConstraint=eastwest;" parent="th5yOO53ETZ3JEMIR0LH-40" vertex="1">
          <mxGeometry y="78" width="290" height="26" as="geometry" />
        </mxCell>
        <mxCell id="th5yOO53ETZ3JEMIR0LH-43" value="" style="line;html=1;strokeWidth=1;align=left;verticalAlign=middle;spacingTop=-1;spacingLeft=3;spacingRight=3;rotatable=0;labelPosition=right;points=[];portConstraint=eastwest;" parent="th5yOO53ETZ3JEMIR0LH-40" vertex="1">
          <mxGeometry y="104" width="290" height="8" as="geometry" />
        </mxCell>
        <mxCell id="th5yOO53ETZ3JEMIR0LH-96" value="createProjectile() : void" style="text;align=left;verticalAlign=top;spacingLeft=4;spacingRight=4;overflow=hidden;rotatable=0;points=[[0,0.5],[1,0.5]];portConstraint=eastwest;" parent="th5yOO53ETZ3JEMIR0LH-40" vertex="1">
          <mxGeometry y="112" width="290" height="26" as="geometry" />
        </mxCell>
        <mxCell id="th5yOO53ETZ3JEMIR0LH-97" value="createWeapon() : void" style="text;align=left;verticalAlign=top;spacingLeft=4;spacingRight=4;overflow=hidden;rotatable=0;points=[[0,0.5],[1,0.5]];portConstraint=eastwest;" parent="th5yOO53ETZ3JEMIR0LH-40" vertex="1">
          <mxGeometry y="138" width="290" height="26" as="geometry" />
        </mxCell>
        <mxCell id="th5yOO53ETZ3JEMIR0LH-98" value="createEnemies() : void" style="text;align=left;verticalAlign=top;spacingLeft=4;spacingRight=4;overflow=hidden;rotatable=0;points=[[0,0.5],[1,0.5]];portConstraint=eastwest;" parent="th5yOO53ETZ3JEMIR0LH-40" vertex="1">
          <mxGeometry y="164" width="290" height="26" as="geometry" />
        </mxCell>
        <mxCell id="th5yOO53ETZ3JEMIR0LH-50" value="Manager" style="swimlane;fontStyle=0;align=center;verticalAlign=top;childLayout=stackLayout;horizontal=1;startSize=26;horizontalStack=0;resizeParent=1;resizeLast=0;collapsible=1;marginBottom=0;rounded=0;shadow=0;strokeWidth=1;" parent="WIyWlLk6GJQsqaUBKTNV-1" vertex="1">
          <mxGeometry x="10" y="423" width="280" height="190" as="geometry">
            <mxRectangle x="130" y="380" width="160" height="26" as="alternateBounds" />
          </mxGeometry>
        </mxCell>
        <mxCell id="th5yOO53ETZ3JEMIR0LH-52" value="" style="line;html=1;strokeWidth=1;align=left;verticalAlign=middle;spacingTop=-1;spacingLeft=3;spacingRight=3;rotatable=0;labelPosition=right;points=[];portConstraint=eastwest;" parent="th5yOO53ETZ3JEMIR0LH-50" vertex="1">
          <mxGeometry y="26" width="280" height="8" as="geometry" />
        </mxCell>
        <mxCell id="th5yOO53ETZ3JEMIR0LH-87" value="+ update()" style="text;align=left;verticalAlign=top;spacingLeft=4;spacingRight=4;overflow=hidden;rotatable=0;points=[[0,0.5],[1,0.5]];portConstraint=eastwest;fontStyle=0" parent="th5yOO53ETZ3JEMIR0LH-50" vertex="1">
          <mxGeometry y="34" width="280" height="26" as="geometry" />
        </mxCell>
        <mxCell id="th5yOO53ETZ3JEMIR0LH-88" value="+ draw()" style="text;align=left;verticalAlign=top;spacingLeft=4;spacingRight=4;overflow=hidden;rotatable=0;points=[[0,0.5],[1,0.5]];portConstraint=eastwest;fontStyle=0" parent="th5yOO53ETZ3JEMIR0LH-50" vertex="1">
          <mxGeometry y="60" width="280" height="26" as="geometry" />
        </mxCell>
        <mxCell id="th5yOO53ETZ3JEMIR0LH-89" value="+ refresh()" style="text;align=left;verticalAlign=top;spacingLeft=4;spacingRight=4;overflow=hidden;rotatable=0;points=[[0,0.5],[1,0.5]];portConstraint=eastwest;fontStyle=0" parent="th5yOO53ETZ3JEMIR0LH-50" vertex="1">
          <mxGeometry y="86" width="280" height="26" as="geometry" />
        </mxCell>
        <mxCell id="th5yOO53ETZ3JEMIR0LH-90" value="+ addToGroup(mEntity : Entity*, Group mGroup)" style="text;align=left;verticalAlign=top;spacingLeft=4;spacingRight=4;overflow=hidden;rotatable=0;points=[[0,0.5],[1,0.5]];portConstraint=eastwest;fontStyle=0" parent="th5yOO53ETZ3JEMIR0LH-50" vertex="1">
          <mxGeometry y="112" width="280" height="26" as="geometry" />
        </mxCell>
        <mxCell id="th5yOO53ETZ3JEMIR0LH-91" value="+ getGroup(Group mGroup) : vector&lt;Entity*&gt;" style="text;align=left;verticalAlign=top;spacingLeft=4;spacingRight=4;overflow=hidden;rotatable=0;points=[[0,0.5],[1,0.5]];portConstraint=eastwest;fontStyle=0" parent="th5yOO53ETZ3JEMIR0LH-50" vertex="1">
          <mxGeometry y="138" width="280" height="26" as="geometry" />
        </mxCell>
        <mxCell id="th5yOO53ETZ3JEMIR0LH-92" value="+ addEntity() : Entity*" style="text;align=left;verticalAlign=top;spacingLeft=4;spacingRight=4;overflow=hidden;rotatable=0;points=[[0,0.5],[1,0.5]];portConstraint=eastwest;fontStyle=0" parent="th5yOO53ETZ3JEMIR0LH-50" vertex="1">
          <mxGeometry y="164" width="280" height="26" as="geometry" />
        </mxCell>
        <mxCell id="th5yOO53ETZ3JEMIR0LH-63" style="edgeStyle=orthogonalEdgeStyle;rounded=0;orthogonalLoop=1;jettySize=auto;html=1;endArrow=blockThin;endFill=1;" parent="WIyWlLk6GJQsqaUBKTNV-1" source="th5yOO53ETZ3JEMIR0LH-56" target="th5yOO53ETZ3JEMIR0LH-24" edge="1">
          <mxGeometry relative="1" as="geometry">
            <mxPoint x="820" y="50" as="sourcePoint" />
            <Array as="points">
              <mxPoint x="780" y="79" />
            </Array>
          </mxGeometry>
        </mxCell>
        <mxCell id="th5yOO53ETZ3JEMIR0LH-64" value="entity *" style="edgeLabel;html=1;align=center;verticalAlign=middle;resizable=0;points=[];" parent="th5yOO53ETZ3JEMIR0LH-63" vertex="1" connectable="0">
          <mxGeometry x="-0.684" y="1" relative="1" as="geometry">
            <mxPoint x="-1" y="32" as="offset" />
          </mxGeometry>
        </mxCell>
        <mxCell id="th5yOO53ETZ3JEMIR0LH-56" value="Component" style="swimlane;fontStyle=2;align=center;verticalAlign=top;childLayout=stackLayout;horizontal=1;startSize=26;horizontalStack=0;resizeParent=1;resizeLast=0;collapsible=1;marginBottom=0;rounded=0;shadow=0;strokeWidth=1;" parent="WIyWlLk6GJQsqaUBKTNV-1" vertex="1">
          <mxGeometry x="565" width="160" height="112" as="geometry">
            <mxRectangle x="130" y="380" width="160" height="26" as="alternateBounds" />
          </mxGeometry>
        </mxCell>
        <mxCell id="th5yOO53ETZ3JEMIR0LH-58" value="" style="line;html=1;strokeWidth=1;align=left;verticalAlign=middle;spacingTop=-1;spacingLeft=3;spacingRight=3;rotatable=0;labelPosition=right;points=[];portConstraint=eastwest;" parent="th5yOO53ETZ3JEMIR0LH-56" vertex="1">
          <mxGeometry y="26" width="160" height="8" as="geometry" />
        </mxCell>
        <mxCell id="th5yOO53ETZ3JEMIR0LH-65" value="+ init()" style="text;align=left;verticalAlign=top;spacingLeft=4;spacingRight=4;overflow=hidden;rotatable=0;points=[[0,0.5],[1,0.5]];portConstraint=eastwest;fontStyle=2" parent="th5yOO53ETZ3JEMIR0LH-56" vertex="1">
          <mxGeometry y="34" width="160" height="26" as="geometry" />
        </mxCell>
        <mxCell id="th5yOO53ETZ3JEMIR0LH-67" value="+ update()" style="text;align=left;verticalAlign=top;spacingLeft=4;spacingRight=4;overflow=hidden;rotatable=0;points=[[0,0.5],[1,0.5]];portConstraint=eastwest;fontStyle=2" parent="th5yOO53ETZ3JEMIR0LH-56" vertex="1">
          <mxGeometry y="60" width="160" height="26" as="geometry" />
        </mxCell>
        <mxCell id="th5yOO53ETZ3JEMIR0LH-66" value="+ draw()" style="text;align=left;verticalAlign=top;spacingLeft=4;spacingRight=4;overflow=hidden;rotatable=0;points=[[0,0.5],[1,0.5]];portConstraint=eastwest;fontStyle=2" parent="th5yOO53ETZ3JEMIR0LH-56" vertex="1">
          <mxGeometry y="86" width="160" height="26" as="geometry" />
        </mxCell>
        <mxCell id="th5yOO53ETZ3JEMIR0LH-61" value="" style="endArrow=diamondThin;endFill=1;endSize=24;html=1;" parent="WIyWlLk6GJQsqaUBKTNV-1" source="th5yOO53ETZ3JEMIR0LH-56" target="th5yOO53ETZ3JEMIR0LH-24" edge="1">
          <mxGeometry width="160" relative="1" as="geometry">
            <mxPoint x="370" y="230" as="sourcePoint" />
            <mxPoint x="530" y="230" as="targetPoint" />
          </mxGeometry>
        </mxCell>
        <mxCell id="th5yOO53ETZ3JEMIR0LH-62" value="components : vector " style="edgeLabel;html=1;align=center;verticalAlign=middle;resizable=0;points=[];" parent="th5yOO53ETZ3JEMIR0LH-61" vertex="1" connectable="0">
          <mxGeometry x="-0.4118" y="4" relative="1" as="geometry">
            <mxPoint x="46" y="32" as="offset" />
          </mxGeometry>
        </mxCell>
        <mxCell id="th5yOO53ETZ3JEMIR0LH-77" value="" style="endArrow=diamondThin;endFill=1;endSize=24;html=1;entryX=1.009;entryY=0.09;entryDx=0;entryDy=0;entryPerimeter=0;exitX=-0.001;exitY=0.027;exitDx=0;exitDy=0;exitPerimeter=0;" parent="WIyWlLk6GJQsqaUBKTNV-1" source="th5yOO53ETZ3JEMIR0LH-73" target="th5yOO53ETZ3JEMIR0LH-50" edge="1">
          <mxGeometry width="160" relative="1" as="geometry">
            <mxPoint x="490" y="506.20600000000013" as="sourcePoint" />
            <mxPoint x="290" y="342" as="targetPoint" />
            <Array as="points" />
          </mxGeometry>
        </mxCell>
        <mxCell id="th5yOO53ETZ3JEMIR0LH-78" value="entities: vector " style="edgeLabel;html=1;align=center;verticalAlign=middle;resizable=0;points=[];" parent="th5yOO53ETZ3JEMIR0LH-77" vertex="1" connectable="0">
          <mxGeometry x="-0.4118" y="4" relative="1" as="geometry">
            <mxPoint x="-88.31" y="8.480000000000004" as="offset" />
          </mxGeometry>
        </mxCell>
        <mxCell id="th5yOO53ETZ3JEMIR0LH-80" value="vector" style="swimlane;fontStyle=0;align=center;verticalAlign=top;childLayout=stackLayout;horizontal=1;startSize=26;horizontalStack=0;resizeParent=1;resizeLast=0;collapsible=1;marginBottom=0;rounded=0;shadow=0;strokeWidth=1;" parent="WIyWlLk6GJQsqaUBKTNV-1" vertex="1">
          <mxGeometry x="70" y="260" width="160" height="60" as="geometry">
            <mxRectangle x="130" y="380" width="160" height="26" as="alternateBounds" />
          </mxGeometry>
        </mxCell>
        <mxCell id="th5yOO53ETZ3JEMIR0LH-81" value="" style="line;html=1;strokeWidth=1;align=left;verticalAlign=middle;spacingTop=-1;spacingLeft=3;spacingRight=3;rotatable=0;labelPosition=right;points=[];portConstraint=eastwest;" parent="th5yOO53ETZ3JEMIR0LH-80" vertex="1">
          <mxGeometry y="26" width="160" height="8" as="geometry" />
        </mxCell>
        <mxCell id="th5yOO53ETZ3JEMIR0LH-82" value="" style="endArrow=diamondThin;endFill=1;endSize=24;html=1;" parent="WIyWlLk6GJQsqaUBKTNV-1" source="th5yOO53ETZ3JEMIR0LH-80" target="th5yOO53ETZ3JEMIR0LH-50" edge="1">
          <mxGeometry width="160" relative="1" as="geometry">
            <mxPoint x="500" y="577.4382022471909" as="sourcePoint" />
            <mxPoint x="210" y="561" as="targetPoint" />
          </mxGeometry>
        </mxCell>
        <mxCell id="th5yOO53ETZ3JEMIR0LH-84" value="" style="endArrow=diamondThin;endFill=1;endSize=24;html=1;" parent="WIyWlLk6GJQsqaUBKTNV-1" source="th5yOO53ETZ3JEMIR0LH-55" target="th5yOO53ETZ3JEMIR0LH-80" edge="1">
          <mxGeometry width="160" relative="1" as="geometry">
            <mxPoint x="540" y="250" as="sourcePoint" />
            <mxPoint x="300" y="150" as="targetPoint" />
          </mxGeometry>
        </mxCell>
        <mxCell id="th5yOO53ETZ3JEMIR0LH-86" value="" style="endArrow=diamondThin;endFill=1;endSize=24;html=1;dashed=1;entryX=1;entryY=0.224;entryDx=0;entryDy=0;entryPerimeter=0;exitX=0.011;exitY=0.914;exitDx=0;exitDy=0;exitPerimeter=0;" parent="WIyWlLk6GJQsqaUBKTNV-1" source="th5yOO53ETZ3JEMIR0LH-36" target="th5yOO53ETZ3JEMIR0LH-55" edge="1">
          <mxGeometry width="160" relative="1" as="geometry">
            <mxPoint x="1000" y="282" as="sourcePoint" />
            <mxPoint x="1060" y="280" as="targetPoint" />
            <Array as="points" />
          </mxGeometry>
        </mxCell>
        <mxCell id="th5yOO53ETZ3JEMIR0LH-94" style="edgeStyle=orthogonalEdgeStyle;rounded=0;orthogonalLoop=1;jettySize=auto;html=1;endArrow=blockThin;endFill=1;" parent="WIyWlLk6GJQsqaUBKTNV-1" source="th5yOO53ETZ3JEMIR0LH-40" target="th5yOO53ETZ3JEMIR0LH-50" edge="1">
          <mxGeometry relative="1" as="geometry">
            <mxPoint x="450" y="825.9988235294118" as="sourcePoint" />
            <mxPoint x="240" y="799.9988235294118" as="targetPoint" />
          </mxGeometry>
        </mxCell>
        <mxCell id="th5yOO53ETZ3JEMIR0LH-95" value="manager &amp;amp;" style="edgeLabel;html=1;align=center;verticalAlign=middle;resizable=0;points=[];" parent="th5yOO53ETZ3JEMIR0LH-94" vertex="1" connectable="0">
          <mxGeometry x="0.3544" y="-2" relative="1" as="geometry">
            <mxPoint x="118" y="148.82" as="offset" />
          </mxGeometry>
        </mxCell>
        <mxCell id="th5yOO53ETZ3JEMIR0LH-102" value="Collison" style="swimlane;fontStyle=4;align=center;verticalAlign=top;childLayout=stackLayout;horizontal=1;startSize=26;horizontalStack=0;resizeParent=1;resizeLast=0;collapsible=1;marginBottom=0;rounded=0;shadow=0;strokeWidth=1;" parent="WIyWlLk6GJQsqaUBKTNV-1" vertex="1">
          <mxGeometry x="1130" y="10" width="360" height="120" as="geometry">
            <mxRectangle x="130" y="380" width="160" height="26" as="alternateBounds" />
          </mxGeometry>
        </mxCell>
        <mxCell id="th5yOO53ETZ3JEMIR0LH-104" value="" style="line;html=1;strokeWidth=1;align=left;verticalAlign=middle;spacingTop=-1;spacingLeft=3;spacingRight=3;rotatable=0;labelPosition=right;points=[];portConstraint=eastwest;" parent="th5yOO53ETZ3JEMIR0LH-102" vertex="1">
          <mxGeometry y="26" width="360" height="8" as="geometry" />
        </mxCell>
        <mxCell id="th5yOO53ETZ3JEMIR0LH-106" value="AABB(...) : bool" style="text;align=left;verticalAlign=top;spacingLeft=4;spacingRight=4;overflow=hidden;rotatable=0;points=[[0,0.5],[1,0.5]];portConstraint=eastwest;fontStyle=4" parent="th5yOO53ETZ3JEMIR0LH-102" vertex="1">
          <mxGeometry y="34" width="360" height="26" as="geometry" />
        </mxCell>
        <mxCell id="th5yOO53ETZ3JEMIR0LH-113" value="AABB(...) : bool" style="text;align=left;verticalAlign=top;spacingLeft=4;spacingRight=4;overflow=hidden;rotatable=0;points=[[0,0.5],[1,0.5]];portConstraint=eastwest;fontStyle=4" parent="th5yOO53ETZ3JEMIR0LH-102" vertex="1">
          <mxGeometry y="60" width="360" height="26" as="geometry" />
        </mxCell>
        <mxCell id="th5yOO53ETZ3JEMIR0LH-114" value="resolveCollisions(players : Entity, colliders: vector&lt;Entity *&gt;)" style="text;align=left;verticalAlign=top;spacingLeft=4;spacingRight=4;overflow=hidden;rotatable=0;points=[[0,0.5],[1,0.5]];portConstraint=eastwest;fontStyle=4" parent="th5yOO53ETZ3JEMIR0LH-102" vertex="1">
          <mxGeometry y="86" width="360" height="26" as="geometry" />
        </mxCell>
        <mxCell id="th5yOO53ETZ3JEMIR0LH-115" value="TextureManager" style="swimlane;fontStyle=4;align=center;verticalAlign=top;childLayout=stackLayout;horizontal=1;startSize=26;horizontalStack=0;resizeParent=1;resizeLast=0;collapsible=1;marginBottom=0;rounded=0;shadow=0;strokeWidth=1;" parent="WIyWlLk6GJQsqaUBKTNV-1" vertex="1">
          <mxGeometry x="870" y="10" width="230" height="120" as="geometry">
            <mxRectangle x="130" y="380" width="160" height="26" as="alternateBounds" />
          </mxGeometry>
        </mxCell>
        <mxCell id="th5yOO53ETZ3JEMIR0LH-116" value="" style="line;html=1;strokeWidth=1;align=left;verticalAlign=middle;spacingTop=-1;spacingLeft=3;spacingRight=3;rotatable=0;labelPosition=right;points=[];portConstraint=eastwest;" parent="th5yOO53ETZ3JEMIR0LH-115" vertex="1">
          <mxGeometry y="26" width="230" height="8" as="geometry" />
        </mxCell>
        <mxCell id="th5yOO53ETZ3JEMIR0LH-117" value="LoadTexture() : SDL_Texture*" style="text;align=left;verticalAlign=top;spacingLeft=4;spacingRight=4;overflow=hidden;rotatable=0;points=[[0,0.5],[1,0.5]];portConstraint=eastwest;fontStyle=4" parent="th5yOO53ETZ3JEMIR0LH-115" vertex="1">
          <mxGeometry y="34" width="230" height="26" as="geometry" />
        </mxCell>
        <mxCell id="th5yOO53ETZ3JEMIR0LH-118" value="Draw()" style="text;align=left;verticalAlign=top;spacingLeft=4;spacingRight=4;overflow=hidden;rotatable=0;points=[[0,0.5],[1,0.5]];portConstraint=eastwest;fontStyle=4" parent="th5yOO53ETZ3JEMIR0LH-115" vertex="1">
          <mxGeometry y="60" width="230" height="26" as="geometry" />
        </mxCell>
        <mxCell id="th5yOO53ETZ3JEMIR0LH-119" value="DrawRotate()" style="text;align=left;verticalAlign=top;spacingLeft=4;spacingRight=4;overflow=hidden;rotatable=0;points=[[0,0.5],[1,0.5]];portConstraint=eastwest;fontStyle=4" parent="th5yOO53ETZ3JEMIR0LH-115" vertex="1">
          <mxGeometry y="86" width="230" height="26" as="geometry" />
        </mxCell>
        <mxCell id="p8qPXEf4PS3Dpe8iqj9y-2" value="groupedEntities " style="text;html=1;align=center;verticalAlign=middle;resizable=0;points=[];autosize=1;" parent="WIyWlLk6GJQsqaUBKTNV-1" vertex="1">
          <mxGeometry x="150" y="370" width="100" height="20" as="geometry" />
        </mxCell>
        <mxCell id="p8qPXEf4PS3Dpe8iqj9y-8" value="TransformComponent" style="swimlane;fontStyle=0;align=center;verticalAlign=top;childLayout=stackLayout;horizontal=1;startSize=26;horizontalStack=0;resizeParent=1;resizeLast=0;collapsible=1;marginBottom=0;rounded=0;shadow=0;strokeWidth=1;" parent="WIyWlLk6GJQsqaUBKTNV-1" vertex="1">
          <mxGeometry x="520" y="-1079" width="250" height="300" as="geometry">
            <mxRectangle x="130" y="380" width="160" height="26" as="alternateBounds" />
          </mxGeometry>
        </mxCell>
        <mxCell id="p8qPXEf4PS3Dpe8iqj9y-9" value="+ position, velocity, previousPos  : Vector2D" style="text;align=left;verticalAlign=top;spacingLeft=4;spacingRight=4;overflow=hidden;rotatable=0;points=[[0,0.5],[1,0.5]];portConstraint=eastwest;" parent="p8qPXEf4PS3Dpe8iqj9y-8" vertex="1">
          <mxGeometry y="26" width="250" height="26" as="geometry" />
        </mxCell>
        <mxCell id="p8qPXEf4PS3Dpe8iqj9y-22" value="+ rotation : double" style="text;align=left;verticalAlign=top;spacingLeft=4;spacingRight=4;overflow=hidden;rotatable=0;points=[[0,0.5],[1,0.5]];portConstraint=eastwest;" parent="p8qPXEf4PS3Dpe8iqj9y-8" vertex="1">
          <mxGeometry y="52" width="250" height="26" as="geometry" />
        </mxCell>
        <mxCell id="p8qPXEf4PS3Dpe8iqj9y-23" value="+ rotationCenter : SDL_Point" style="text;align=left;verticalAlign=top;spacingLeft=4;spacingRight=4;overflow=hidden;rotatable=0;points=[[0,0.5],[1,0.5]];portConstraint=eastwest;" parent="p8qPXEf4PS3Dpe8iqj9y-8" vertex="1">
          <mxGeometry y="78" width="250" height="26" as="geometry" />
        </mxCell>
        <mxCell id="p8qPXEf4PS3Dpe8iqj9y-24" value="+ speed, height, width, scale : int" style="text;align=left;verticalAlign=top;spacingLeft=4;spacingRight=4;overflow=hidden;rotatable=0;points=[[0,0.5],[1,0.5]];portConstraint=eastwest;" parent="p8qPXEf4PS3Dpe8iqj9y-8" vertex="1">
          <mxGeometry y="104" width="250" height="26" as="geometry" />
        </mxCell>
        <mxCell id="p8qPXEf4PS3Dpe8iqj9y-10" value="" style="line;html=1;strokeWidth=1;align=left;verticalAlign=middle;spacingTop=-1;spacingLeft=3;spacingRight=3;rotatable=0;labelPosition=right;points=[];portConstraint=eastwest;" parent="p8qPXEf4PS3Dpe8iqj9y-8" vertex="1">
          <mxGeometry y="130" width="250" height="8" as="geometry" />
        </mxCell>
        <mxCell id="p8qPXEf4PS3Dpe8iqj9y-11" value="+ TransformComponent()" style="text;align=left;verticalAlign=top;spacingLeft=4;spacingRight=4;overflow=hidden;rotatable=0;points=[[0,0.5],[1,0.5]];portConstraint=eastwest;fontStyle=0" parent="p8qPXEf4PS3Dpe8iqj9y-8" vertex="1">
          <mxGeometry y="138" width="250" height="26" as="geometry" />
        </mxCell>
        <mxCell id="p8qPXEf4PS3Dpe8iqj9y-25" value="+ TransformComponent(sc : int)" style="text;align=left;verticalAlign=top;spacingLeft=4;spacingRight=4;overflow=hidden;rotatable=0;points=[[0,0.5],[1,0.5]];portConstraint=eastwest;fontStyle=0" parent="p8qPXEf4PS3Dpe8iqj9y-8" vertex="1">
          <mxGeometry y="164" width="250" height="26" as="geometry" />
        </mxCell>
        <mxCell id="p8qPXEf4PS3Dpe8iqj9y-26" value="+ TransformComponent(x,y : int)" style="text;align=left;verticalAlign=top;spacingLeft=4;spacingRight=4;overflow=hidden;rotatable=0;points=[[0,0.5],[1,0.5]];portConstraint=eastwest;fontStyle=0" parent="p8qPXEf4PS3Dpe8iqj9y-8" vertex="1">
          <mxGeometry y="190" width="250" height="26" as="geometry" />
        </mxCell>
        <mxCell id="p8qPXEf4PS3Dpe8iqj9y-27" value="+ TransformComponent(x, y, w, h, sc : int)" style="text;align=left;verticalAlign=top;spacingLeft=4;spacingRight=4;overflow=hidden;rotatable=0;points=[[0,0.5],[1,0.5]];portConstraint=eastwest;fontStyle=0" parent="p8qPXEf4PS3Dpe8iqj9y-8" vertex="1">
          <mxGeometry y="216" width="250" height="26" as="geometry" />
        </mxCell>
        <mxCell id="p8qPXEf4PS3Dpe8iqj9y-12" value="+ init()" style="text;align=left;verticalAlign=top;spacingLeft=4;spacingRight=4;overflow=hidden;rotatable=0;points=[[0,0.5],[1,0.5]];portConstraint=eastwest;" parent="p8qPXEf4PS3Dpe8iqj9y-8" vertex="1">
          <mxGeometry y="242" width="250" height="26" as="geometry" />
        </mxCell>
        <mxCell id="p8qPXEf4PS3Dpe8iqj9y-13" value="+ update()" style="text;align=left;verticalAlign=top;spacingLeft=4;spacingRight=4;overflow=hidden;rotatable=0;points=[[0,0.5],[1,0.5]];portConstraint=eastwest;" parent="p8qPXEf4PS3Dpe8iqj9y-8" vertex="1">
          <mxGeometry y="268" width="250" height="26" as="geometry" />
        </mxCell>
        <mxCell id="p8qPXEf4PS3Dpe8iqj9y-20" value="" style="endArrow=block;endSize=16;endFill=0;html=1;" parent="WIyWlLk6GJQsqaUBKTNV-1" source="p8qPXEf4PS3Dpe8iqj9y-8" target="th5yOO53ETZ3JEMIR0LH-56" edge="1">
          <mxGeometry x="-0.0604" y="43" width="160" relative="1" as="geometry">
            <mxPoint x="570" y="-40" as="sourcePoint" />
            <mxPoint x="730" y="-40" as="targetPoint" />
            <mxPoint y="1" as="offset" />
          </mxGeometry>
        </mxCell>
        <mxCell id="p8qPXEf4PS3Dpe8iqj9y-41" style="edgeStyle=orthogonalEdgeStyle;rounded=0;orthogonalLoop=1;jettySize=auto;html=1;startArrow=none;startFill=0;" parent="WIyWlLk6GJQsqaUBKTNV-1" source="p8qPXEf4PS3Dpe8iqj9y-28" target="p8qPXEf4PS3Dpe8iqj9y-8" edge="1">
          <mxGeometry relative="1" as="geometry">
            <Array as="points">
              <mxPoint x="1405" y="-949" />
            </Array>
          </mxGeometry>
        </mxCell>
        <mxCell id="vB8Np_NBV5jCZkLpVjF9-15" value="transform *" style="edgeLabel;html=1;align=center;verticalAlign=middle;resizable=0;points=[];" vertex="1" connectable="0" parent="p8qPXEf4PS3Dpe8iqj9y-41">
          <mxGeometry x="-0.8287" y="3" relative="1" as="geometry">
            <mxPoint x="-2" y="24" as="offset" />
          </mxGeometry>
        </mxCell>
        <mxCell id="p8qPXEf4PS3Dpe8iqj9y-28" value="SpriteComponent" style="swimlane;fontStyle=0;align=center;verticalAlign=top;childLayout=stackLayout;horizontal=1;startSize=26;horizontalStack=0;resizeParent=1;resizeLast=0;collapsible=1;marginBottom=0;rounded=0;shadow=0;strokeWidth=1;" parent="WIyWlLk6GJQsqaUBKTNV-1" vertex="1">
          <mxGeometry x="1280" y="-698" width="250" height="372" as="geometry">
            <mxRectangle x="130" y="380" width="160" height="26" as="alternateBounds" />
          </mxGeometry>
        </mxCell>
        <mxCell id="p8qPXEf4PS3Dpe8iqj9y-29" value="- texture : SDL_Texture*" style="text;align=left;verticalAlign=top;spacingLeft=4;spacingRight=4;overflow=hidden;rotatable=0;points=[[0,0.5],[1,0.5]];portConstraint=eastwest;" parent="p8qPXEf4PS3Dpe8iqj9y-28" vertex="1">
          <mxGeometry y="26" width="250" height="26" as="geometry" />
        </mxCell>
        <mxCell id="p8qPXEf4PS3Dpe8iqj9y-30" value="- src, dest : SDL_Rect" style="text;align=left;verticalAlign=top;spacingLeft=4;spacingRight=4;overflow=hidden;rotatable=0;points=[[0,0.5],[1,0.5]];portConstraint=eastwest;" parent="p8qPXEf4PS3Dpe8iqj9y-28" vertex="1">
          <mxGeometry y="52" width="250" height="26" as="geometry" />
        </mxCell>
        <mxCell id="p8qPXEf4PS3Dpe8iqj9y-31" value="- animated : bool" style="text;align=left;verticalAlign=top;spacingLeft=4;spacingRight=4;overflow=hidden;rotatable=0;points=[[0,0.5],[1,0.5]];portConstraint=eastwest;" parent="p8qPXEf4PS3Dpe8iqj9y-28" vertex="1">
          <mxGeometry y="78" width="250" height="26" as="geometry" />
        </mxCell>
        <mxCell id="p8qPXEf4PS3Dpe8iqj9y-32" value="- frames, speed : int" style="text;align=left;verticalAlign=top;spacingLeft=4;spacingRight=4;overflow=hidden;rotatable=0;points=[[0,0.5],[1,0.5]];portConstraint=eastwest;" parent="p8qPXEf4PS3Dpe8iqj9y-28" vertex="1">
          <mxGeometry y="104" width="250" height="26" as="geometry" />
        </mxCell>
        <mxCell id="p8qPXEf4PS3Dpe8iqj9y-44" value="+ animIndex : int" style="text;align=left;verticalAlign=top;spacingLeft=4;spacingRight=4;overflow=hidden;rotatable=0;points=[[0,0.5],[1,0.5]];portConstraint=eastwest;" parent="p8qPXEf4PS3Dpe8iqj9y-28" vertex="1">
          <mxGeometry y="130" width="250" height="26" as="geometry" />
        </mxCell>
        <mxCell id="p8qPXEf4PS3Dpe8iqj9y-33" value="" style="line;html=1;strokeWidth=1;align=left;verticalAlign=middle;spacingTop=-1;spacingLeft=3;spacingRight=3;rotatable=0;labelPosition=right;points=[];portConstraint=eastwest;" parent="p8qPXEf4PS3Dpe8iqj9y-28" vertex="1">
          <mxGeometry y="156" width="250" height="8" as="geometry" />
        </mxCell>
        <mxCell id="p8qPXEf4PS3Dpe8iqj9y-42" value="+ SpriteComponent()" style="text;align=left;verticalAlign=top;spacingLeft=4;spacingRight=4;overflow=hidden;rotatable=0;points=[[0,0.5],[1,0.5]];portConstraint=eastwest;fontStyle=0" parent="p8qPXEf4PS3Dpe8iqj9y-28" vertex="1">
          <mxGeometry y="164" width="250" height="26" as="geometry" />
        </mxCell>
        <mxCell id="p8qPXEf4PS3Dpe8iqj9y-61" value="+ SpriteComponent(idTex : string)" style="text;align=left;verticalAlign=top;spacingLeft=4;spacingRight=4;overflow=hidden;rotatable=0;points=[[0,0.5],[1,0.5]];portConstraint=eastwest;fontStyle=0" parent="p8qPXEf4PS3Dpe8iqj9y-28" vertex="1">
          <mxGeometry y="190" width="250" height="26" as="geometry" />
        </mxCell>
        <mxCell id="p8qPXEf4PS3Dpe8iqj9y-34" value="+ SpriteComponent(idTex : string, isAnimated : bool)" style="text;align=left;verticalAlign=top;spacingLeft=4;spacingRight=4;overflow=hidden;rotatable=0;points=[[0,0.5],[1,0.5]];portConstraint=eastwest;fontStyle=0" parent="p8qPXEf4PS3Dpe8iqj9y-28" vertex="1">
          <mxGeometry y="216" width="250" height="26" as="geometry" />
        </mxCell>
        <mxCell id="p8qPXEf4PS3Dpe8iqj9y-38" value="+ setTex(idTex : int)" style="text;align=left;verticalAlign=top;spacingLeft=4;spacingRight=4;overflow=hidden;rotatable=0;points=[[0,0.5],[1,0.5]];portConstraint=eastwest;" parent="p8qPXEf4PS3Dpe8iqj9y-28" vertex="1">
          <mxGeometry y="242" width="250" height="26" as="geometry" />
        </mxCell>
        <mxCell id="p8qPXEf4PS3Dpe8iqj9y-62" value="+ init()" style="text;align=left;verticalAlign=top;spacingLeft=4;spacingRight=4;overflow=hidden;rotatable=0;points=[[0,0.5],[1,0.5]];portConstraint=eastwest;" parent="p8qPXEf4PS3Dpe8iqj9y-28" vertex="1">
          <mxGeometry y="268" width="250" height="26" as="geometry" />
        </mxCell>
        <mxCell id="p8qPXEf4PS3Dpe8iqj9y-39" value="+ update()" style="text;align=left;verticalAlign=top;spacingLeft=4;spacingRight=4;overflow=hidden;rotatable=0;points=[[0,0.5],[1,0.5]];portConstraint=eastwest;" parent="p8qPXEf4PS3Dpe8iqj9y-28" vertex="1">
          <mxGeometry y="294" width="250" height="26" as="geometry" />
        </mxCell>
        <mxCell id="p8qPXEf4PS3Dpe8iqj9y-63" value="+ draw()" style="text;align=left;verticalAlign=top;spacingLeft=4;spacingRight=4;overflow=hidden;rotatable=0;points=[[0,0.5],[1,0.5]];portConstraint=eastwest;fontStyle=0" parent="p8qPXEf4PS3Dpe8iqj9y-28" vertex="1">
          <mxGeometry y="320" width="250" height="26" as="geometry" />
        </mxCell>
        <mxCell id="p8qPXEf4PS3Dpe8iqj9y-64" value="+ play(animName : string)" style="text;align=left;verticalAlign=top;spacingLeft=4;spacingRight=4;overflow=hidden;rotatable=0;points=[[0,0.5],[1,0.5]];portConstraint=eastwest;fontStyle=0" parent="p8qPXEf4PS3Dpe8iqj9y-28" vertex="1">
          <mxGeometry y="346" width="250" height="26" as="geometry" />
        </mxCell>
        <mxCell id="p8qPXEf4PS3Dpe8iqj9y-40" value="" style="endArrow=block;endSize=16;endFill=0;html=1;" parent="WIyWlLk6GJQsqaUBKTNV-1" source="p8qPXEf4PS3Dpe8iqj9y-28" target="th5yOO53ETZ3JEMIR0LH-56" edge="1">
          <mxGeometry x="-0.0604" y="43" width="160" relative="1" as="geometry">
            <mxPoint x="890" y="-50" as="sourcePoint" />
            <mxPoint x="965.8888888888889" y="-10" as="targetPoint" />
            <Array as="points">
              <mxPoint x="1405" y="-280" />
              <mxPoint x="645" y="-280" />
            </Array>
            <mxPoint y="1" as="offset" />
          </mxGeometry>
        </mxCell>
        <mxCell id="p8qPXEf4PS3Dpe8iqj9y-45" value="&lt;struct&gt; Animation" style="swimlane;fontStyle=0;align=center;verticalAlign=top;childLayout=stackLayout;horizontal=1;startSize=26;horizontalStack=0;resizeParent=1;resizeLast=0;collapsible=1;marginBottom=0;rounded=0;shadow=0;strokeWidth=1;" parent="WIyWlLk6GJQsqaUBKTNV-1" vertex="1">
          <mxGeometry x="1430" y="-950" width="190" height="122" as="geometry">
            <mxRectangle x="130" y="380" width="160" height="26" as="alternateBounds" />
          </mxGeometry>
        </mxCell>
        <mxCell id="p8qPXEf4PS3Dpe8iqj9y-51" value="" style="line;html=1;strokeWidth=1;align=left;verticalAlign=middle;spacingTop=-1;spacingLeft=3;spacingRight=3;rotatable=0;labelPosition=right;points=[];portConstraint=eastwest;" parent="p8qPXEf4PS3Dpe8iqj9y-45" vertex="1">
          <mxGeometry y="26" width="190" height="8" as="geometry" />
        </mxCell>
        <mxCell id="p8qPXEf4PS3Dpe8iqj9y-52" value="+ Animation()" style="text;align=left;verticalAlign=top;spacingLeft=4;spacingRight=4;overflow=hidden;rotatable=0;points=[[0,0.5],[1,0.5]];portConstraint=eastwest;fontStyle=0" parent="p8qPXEf4PS3Dpe8iqj9y-45" vertex="1">
          <mxGeometry y="34" width="190" height="26" as="geometry" />
        </mxCell>
        <mxCell id="p8qPXEf4PS3Dpe8iqj9y-55" value="+ Animation(i, f, s : int)" style="text;align=left;verticalAlign=top;spacingLeft=4;spacingRight=4;overflow=hidden;rotatable=0;points=[[0,0.5],[1,0.5]];portConstraint=eastwest;fontStyle=0" parent="p8qPXEf4PS3Dpe8iqj9y-45" vertex="1">
          <mxGeometry y="60" width="190" height="26" as="geometry" />
        </mxCell>
        <mxCell id="p8qPXEf4PS3Dpe8iqj9y-46" value="+ index, frames, speed : int" style="text;align=left;verticalAlign=top;spacingLeft=4;spacingRight=4;overflow=hidden;rotatable=0;points=[[0,0.5],[1,0.5]];portConstraint=eastwest;" parent="p8qPXEf4PS3Dpe8iqj9y-45" vertex="1">
          <mxGeometry y="86" width="190" height="26" as="geometry" />
        </mxCell>
        <mxCell id="p8qPXEf4PS3Dpe8iqj9y-59" value="" style="endArrow=diamondThin;endFill=1;endSize=24;html=1;entryX=0.965;entryY=0.004;entryDx=0;entryDy=0;entryPerimeter=0;" parent="WIyWlLk6GJQsqaUBKTNV-1" target="p8qPXEf4PS3Dpe8iqj9y-28" edge="1">
          <mxGeometry width="160" relative="1" as="geometry">
            <mxPoint x="1521" y="-828" as="sourcePoint" />
            <mxPoint x="1440" y="-555" as="targetPoint" />
          </mxGeometry>
        </mxCell>
        <mxCell id="p8qPXEf4PS3Dpe8iqj9y-60" value="animations : map&amp;lt;string,&amp;nbsp; Animation&amp;gt;" style="edgeLabel;html=1;align=center;verticalAlign=middle;resizable=0;points=[];" parent="p8qPXEf4PS3Dpe8iqj9y-59" vertex="1" connectable="0">
          <mxGeometry x="-0.2795" y="-1" relative="1" as="geometry">
            <mxPoint x="65.35000000000002" y="22.900000000000006" as="offset" />
          </mxGeometry>
        </mxCell>
        <mxCell id="p8qPXEf4PS3Dpe8iqj9y-82" style="edgeStyle=orthogonalEdgeStyle;rounded=0;orthogonalLoop=1;jettySize=auto;html=1;startArrow=none;startFill=0;" parent="WIyWlLk6GJQsqaUBKTNV-1" source="p8qPXEf4PS3Dpe8iqj9y-65" target="p8qPXEf4PS3Dpe8iqj9y-8" edge="1">
          <mxGeometry relative="1" as="geometry">
            <Array as="points">
              <mxPoint x="-10" y="-929" />
            </Array>
          </mxGeometry>
        </mxCell>
        <mxCell id="p8qPXEf4PS3Dpe8iqj9y-83" value="transform *" style="edgeLabel;html=1;align=center;verticalAlign=middle;resizable=0;points=[];" parent="p8qPXEf4PS3Dpe8iqj9y-82" vertex="1" connectable="0">
          <mxGeometry x="-0.7368" y="3" relative="1" as="geometry">
            <mxPoint x="-7" y="20" as="offset" />
          </mxGeometry>
        </mxCell>
        <mxCell id="p8qPXEf4PS3Dpe8iqj9y-65" value="ColliderComponent" style="swimlane;fontStyle=0;align=center;verticalAlign=top;childLayout=stackLayout;horizontal=1;startSize=26;horizontalStack=0;resizeParent=1;resizeLast=0;collapsible=1;marginBottom=0;rounded=0;shadow=0;strokeWidth=1;" parent="WIyWlLk6GJQsqaUBKTNV-1" vertex="1">
          <mxGeometry x="-200" y="-720" width="340" height="300" as="geometry">
            <mxRectangle x="130" y="380" width="160" height="26" as="alternateBounds" />
          </mxGeometry>
        </mxCell>
        <mxCell id="p8qPXEf4PS3Dpe8iqj9y-66" value="+ collider, colliderSrc, texSrc, texDest : SDL_Rect" style="text;align=left;verticalAlign=top;spacingLeft=4;spacingRight=4;overflow=hidden;rotatable=0;points=[[0,0.5],[1,0.5]];portConstraint=eastwest;" parent="p8qPXEf4PS3Dpe8iqj9y-65" vertex="1">
          <mxGeometry y="26" width="340" height="26" as="geometry" />
        </mxCell>
        <mxCell id="p8qPXEf4PS3Dpe8iqj9y-67" value="+ tag : string" style="text;align=left;verticalAlign=top;spacingLeft=4;spacingRight=4;overflow=hidden;rotatable=0;points=[[0,0.5],[1,0.5]];portConstraint=eastwest;" parent="p8qPXEf4PS3Dpe8iqj9y-65" vertex="1">
          <mxGeometry y="52" width="340" height="26" as="geometry" />
        </mxCell>
        <mxCell id="p8qPXEf4PS3Dpe8iqj9y-68" value="+ moving, flipped, hasTex : bool" style="text;align=left;verticalAlign=top;spacingLeft=4;spacingRight=4;overflow=hidden;rotatable=0;points=[[0,0.5],[1,0.5]];portConstraint=eastwest;" parent="p8qPXEf4PS3Dpe8iqj9y-65" vertex="1">
          <mxGeometry y="78" width="340" height="26" as="geometry" />
        </mxCell>
        <mxCell id="p8qPXEf4PS3Dpe8iqj9y-81" value="- texture : SDL_Texture*" style="text;align=left;verticalAlign=top;spacingLeft=4;spacingRight=4;overflow=hidden;rotatable=0;points=[[0,0.5],[1,0.5]];portConstraint=eastwest;" parent="p8qPXEf4PS3Dpe8iqj9y-65" vertex="1">
          <mxGeometry y="104" width="340" height="26" as="geometry" />
        </mxCell>
        <mxCell id="p8qPXEf4PS3Dpe8iqj9y-71" value="" style="line;html=1;strokeWidth=1;align=left;verticalAlign=middle;spacingTop=-1;spacingLeft=3;spacingRight=3;rotatable=0;labelPosition=right;points=[];portConstraint=eastwest;" parent="p8qPXEf4PS3Dpe8iqj9y-65" vertex="1">
          <mxGeometry y="130" width="340" height="8" as="geometry" />
        </mxCell>
        <mxCell id="p8qPXEf4PS3Dpe8iqj9y-72" value="+ ColliderComponent(t : string, m : bool)" style="text;align=left;verticalAlign=top;spacingLeft=4;spacingRight=4;overflow=hidden;rotatable=0;points=[[0,0.5],[1,0.5]];portConstraint=eastwest;fontStyle=0" parent="p8qPXEf4PS3Dpe8iqj9y-65" vertex="1">
          <mxGeometry y="138" width="340" height="26" as="geometry" />
        </mxCell>
        <mxCell id="p8qPXEf4PS3Dpe8iqj9y-73" value="+ ColliderComponent(t: string, m : bool, rect : SDL_Rect)" style="text;align=left;verticalAlign=top;spacingLeft=4;spacingRight=4;overflow=hidden;rotatable=0;points=[[0,0.5],[1,0.5]];portConstraint=eastwest;fontStyle=0" parent="p8qPXEf4PS3Dpe8iqj9y-65" vertex="1">
          <mxGeometry y="164" width="340" height="26" as="geometry" />
        </mxCell>
        <mxCell id="p8qPXEf4PS3Dpe8iqj9y-76" value="+ init()" style="text;align=left;verticalAlign=top;spacingLeft=4;spacingRight=4;overflow=hidden;rotatable=0;points=[[0,0.5],[1,0.5]];portConstraint=eastwest;" parent="p8qPXEf4PS3Dpe8iqj9y-65" vertex="1">
          <mxGeometry y="190" width="340" height="26" as="geometry" />
        </mxCell>
        <mxCell id="p8qPXEf4PS3Dpe8iqj9y-77" value="+ update()" style="text;align=left;verticalAlign=top;spacingLeft=4;spacingRight=4;overflow=hidden;rotatable=0;points=[[0,0.5],[1,0.5]];portConstraint=eastwest;" parent="p8qPXEf4PS3Dpe8iqj9y-65" vertex="1">
          <mxGeometry y="216" width="340" height="26" as="geometry" />
        </mxCell>
        <mxCell id="p8qPXEf4PS3Dpe8iqj9y-78" value="+ draw()" style="text;align=left;verticalAlign=top;spacingLeft=4;spacingRight=4;overflow=hidden;rotatable=0;points=[[0,0.5],[1,0.5]];portConstraint=eastwest;fontStyle=0" parent="p8qPXEf4PS3Dpe8iqj9y-65" vertex="1">
          <mxGeometry y="242" width="340" height="26" as="geometry" />
        </mxCell>
        <mxCell id="p8qPXEf4PS3Dpe8iqj9y-84" value="+ flip()" style="text;align=left;verticalAlign=top;spacingLeft=4;spacingRight=4;overflow=hidden;rotatable=0;points=[[0,0.5],[1,0.5]];portConstraint=eastwest;fontStyle=0" parent="p8qPXEf4PS3Dpe8iqj9y-65" vertex="1">
          <mxGeometry y="268" width="340" height="26" as="geometry" />
        </mxCell>
        <mxCell id="p8qPXEf4PS3Dpe8iqj9y-80" value="" style="endArrow=block;endSize=16;endFill=0;html=1;" parent="WIyWlLk6GJQsqaUBKTNV-1" source="p8qPXEf4PS3Dpe8iqj9y-65" target="th5yOO53ETZ3JEMIR0LH-56" edge="1">
          <mxGeometry x="-0.0604" y="43" width="160" relative="1" as="geometry">
            <mxPoint x="681.6180758017495" y="-101.00000000000023" as="sourcePoint" />
            <mxPoint x="658.0612244897959" as="targetPoint" />
            <mxPoint y="1" as="offset" />
            <Array as="points">
              <mxPoint x="-30" y="-280" />
              <mxPoint x="420" y="-280" />
              <mxPoint x="645" y="-280" />
            </Array>
          </mxGeometry>
        </mxCell>
        <mxCell id="p8qPXEf4PS3Dpe8iqj9y-110" style="edgeStyle=orthogonalEdgeStyle;rounded=0;orthogonalLoop=1;jettySize=auto;html=1;startArrow=none;startFill=0;jumpStyle=arc;jumpSize=18;" parent="WIyWlLk6GJQsqaUBKTNV-1" source="p8qPXEf4PS3Dpe8iqj9y-97" target="th5yOO53ETZ3JEMIR0LH-24" edge="1">
          <mxGeometry relative="1" as="geometry">
            <Array as="points">
              <mxPoint x="310" y="180" />
              <mxPoint x="520" y="180" />
            </Array>
          </mxGeometry>
        </mxCell>
        <mxCell id="p8qPXEf4PS3Dpe8iqj9y-111" value="owner *" style="edgeLabel;html=1;align=center;verticalAlign=middle;resizable=0;points=[];" parent="p8qPXEf4PS3Dpe8iqj9y-110" vertex="1" connectable="0">
          <mxGeometry x="-0.9047" y="5" relative="1" as="geometry">
            <mxPoint x="-35" y="-33.830000000000005" as="offset" />
          </mxGeometry>
        </mxCell>
        <mxCell id="p8qPXEf4PS3Dpe8iqj9y-113" style="edgeStyle=orthogonalEdgeStyle;rounded=0;orthogonalLoop=1;jettySize=auto;html=1;startArrow=none;startFill=0;" parent="WIyWlLk6GJQsqaUBKTNV-1" source="p8qPXEf4PS3Dpe8iqj9y-97" target="p8qPXEf4PS3Dpe8iqj9y-8" edge="1">
          <mxGeometry relative="1" as="geometry">
            <Array as="points">
              <mxPoint x="390" y="-929" />
            </Array>
          </mxGeometry>
        </mxCell>
        <mxCell id="p8qPXEf4PS3Dpe8iqj9y-115" value="transform *" style="edgeLabel;html=1;align=center;verticalAlign=middle;resizable=0;points=[];" parent="p8qPXEf4PS3Dpe8iqj9y-113" vertex="1" connectable="0">
          <mxGeometry x="-0.7618" y="2" relative="1" as="geometry">
            <mxPoint x="2" y="5.684341886080802e-14" as="offset" />
          </mxGeometry>
        </mxCell>
        <mxCell id="p8qPXEf4PS3Dpe8iqj9y-121" style="edgeStyle=orthogonalEdgeStyle;rounded=0;orthogonalLoop=1;jettySize=auto;html=1;startArrow=none;startFill=0;jumpStyle=arc;jumpSize=14;" parent="WIyWlLk6GJQsqaUBKTNV-1" source="p8qPXEf4PS3Dpe8iqj9y-97" target="p8qPXEf4PS3Dpe8iqj9y-65" edge="1">
          <mxGeometry relative="1" as="geometry">
            <mxPoint x="-120" y="-629" as="targetPoint" />
          </mxGeometry>
        </mxCell>
        <mxCell id="p8qPXEf4PS3Dpe8iqj9y-122" value="collider *" style="edgeLabel;html=1;align=center;verticalAlign=middle;resizable=0;points=[];" parent="p8qPXEf4PS3Dpe8iqj9y-121" vertex="1" connectable="0">
          <mxGeometry x="-0.2792" y="-2" relative="1" as="geometry">
            <mxPoint x="-17.14" y="7" as="offset" />
          </mxGeometry>
        </mxCell>
        <mxCell id="p8qPXEf4PS3Dpe8iqj9y-97" value="WeaponComponent" style="swimlane;fontStyle=0;align=center;verticalAlign=top;childLayout=stackLayout;horizontal=1;startSize=26;horizontalStack=0;resizeParent=1;resizeLast=0;collapsible=1;marginBottom=0;rounded=0;shadow=0;strokeWidth=1;" parent="WIyWlLk6GJQsqaUBKTNV-1" vertex="1">
          <mxGeometry x="275" y="-730" width="340" height="320" as="geometry">
            <mxRectangle x="130" y="380" width="160" height="26" as="alternateBounds" />
          </mxGeometry>
        </mxCell>
        <mxCell id="p8qPXEf4PS3Dpe8iqj9y-98" value="- colliderRect : SDL_Rect*" style="text;align=left;verticalAlign=top;spacingLeft=4;spacingRight=4;overflow=hidden;rotatable=0;points=[[0,0.5],[1,0.5]];portConstraint=eastwest;" parent="p8qPXEf4PS3Dpe8iqj9y-97" vertex="1">
          <mxGeometry y="26" width="340" height="26" as="geometry" />
        </mxCell>
        <mxCell id="p8qPXEf4PS3Dpe8iqj9y-99" value="- tag : string" style="text;align=left;verticalAlign=top;spacingLeft=4;spacingRight=4;overflow=hidden;rotatable=0;points=[[0,0.5],[1,0.5]];portConstraint=eastwest;" parent="p8qPXEf4PS3Dpe8iqj9y-97" vertex="1">
          <mxGeometry y="52" width="340" height="26" as="geometry" />
        </mxCell>
        <mxCell id="p8qPXEf4PS3Dpe8iqj9y-100" value="- ownerPos, ownerHand : Vector2D*" style="text;align=left;verticalAlign=top;spacingLeft=4;spacingRight=4;overflow=hidden;rotatable=0;points=[[0,0.5],[1,0.5]];portConstraint=eastwest;" parent="p8qPXEf4PS3Dpe8iqj9y-97" vertex="1">
          <mxGeometry y="78" width="340" height="26" as="geometry" />
        </mxCell>
        <mxCell id="p8qPXEf4PS3Dpe8iqj9y-101" value="- attacking: bool" style="text;align=left;verticalAlign=top;spacingLeft=4;spacingRight=4;overflow=hidden;rotatable=0;points=[[0,0.5],[1,0.5]];portConstraint=eastwest;" parent="p8qPXEf4PS3Dpe8iqj9y-97" vertex="1">
          <mxGeometry y="104" width="340" height="26" as="geometry" />
        </mxCell>
        <mxCell id="p8qPXEf4PS3Dpe8iqj9y-123" value="- ownerFacing : char" style="text;align=left;verticalAlign=top;spacingLeft=4;spacingRight=4;overflow=hidden;rotatable=0;points=[[0,0.5],[1,0.5]];portConstraint=eastwest;" parent="p8qPXEf4PS3Dpe8iqj9y-97" vertex="1">
          <mxGeometry y="130" width="340" height="26" as="geometry" />
        </mxCell>
        <mxCell id="p8qPXEf4PS3Dpe8iqj9y-124" value="- attackStart: int" style="text;align=left;verticalAlign=top;spacingLeft=4;spacingRight=4;overflow=hidden;rotatable=0;points=[[0,0.5],[1,0.5]];portConstraint=eastwest;" parent="p8qPXEf4PS3Dpe8iqj9y-97" vertex="1">
          <mxGeometry y="156" width="340" height="26" as="geometry" />
        </mxCell>
        <mxCell id="p8qPXEf4PS3Dpe8iqj9y-102" value="" style="line;html=1;strokeWidth=1;align=left;verticalAlign=middle;spacingTop=-1;spacingLeft=3;spacingRight=3;rotatable=0;labelPosition=right;points=[];portConstraint=eastwest;" parent="p8qPXEf4PS3Dpe8iqj9y-97" vertex="1">
          <mxGeometry y="182" width="340" height="8" as="geometry" />
        </mxCell>
        <mxCell id="p8qPXEf4PS3Dpe8iqj9y-103" value="+ WeaponComponent(t : string, m : bool)" style="text;align=left;verticalAlign=top;spacingLeft=4;spacingRight=4;overflow=hidden;rotatable=0;points=[[0,0.5],[1,0.5]];portConstraint=eastwest;fontStyle=0" parent="p8qPXEf4PS3Dpe8iqj9y-97" vertex="1">
          <mxGeometry y="190" width="340" height="26" as="geometry" />
        </mxCell>
        <mxCell id="p8qPXEf4PS3Dpe8iqj9y-105" value="+ init()" style="text;align=left;verticalAlign=top;spacingLeft=4;spacingRight=4;overflow=hidden;rotatable=0;points=[[0,0.5],[1,0.5]];portConstraint=eastwest;" parent="p8qPXEf4PS3Dpe8iqj9y-97" vertex="1">
          <mxGeometry y="216" width="340" height="26" as="geometry" />
        </mxCell>
        <mxCell id="p8qPXEf4PS3Dpe8iqj9y-106" value="+ update()" style="text;align=left;verticalAlign=top;spacingLeft=4;spacingRight=4;overflow=hidden;rotatable=0;points=[[0,0.5],[1,0.5]];portConstraint=eastwest;" parent="p8qPXEf4PS3Dpe8iqj9y-97" vertex="1">
          <mxGeometry y="242" width="340" height="26" as="geometry" />
        </mxCell>
        <mxCell id="p8qPXEf4PS3Dpe8iqj9y-107" value="+ draw()" style="text;align=left;verticalAlign=top;spacingLeft=4;spacingRight=4;overflow=hidden;rotatable=0;points=[[0,0.5],[1,0.5]];portConstraint=eastwest;fontStyle=0" parent="p8qPXEf4PS3Dpe8iqj9y-97" vertex="1">
          <mxGeometry y="268" width="340" height="26" as="geometry" />
        </mxCell>
        <mxCell id="p8qPXEf4PS3Dpe8iqj9y-108" value="+ attack()" style="text;align=left;verticalAlign=top;spacingLeft=4;spacingRight=4;overflow=hidden;rotatable=0;points=[[0,0.5],[1,0.5]];portConstraint=eastwest;fontStyle=0" parent="p8qPXEf4PS3Dpe8iqj9y-97" vertex="1">
          <mxGeometry y="294" width="340" height="26" as="geometry" />
        </mxCell>
        <mxCell id="p8qPXEf4PS3Dpe8iqj9y-109" value="" style="endArrow=block;endSize=16;endFill=0;html=1;" parent="WIyWlLk6GJQsqaUBKTNV-1" source="p8qPXEf4PS3Dpe8iqj9y-97" target="th5yOO53ETZ3JEMIR0LH-56" edge="1">
          <mxGeometry x="-0.0604" y="43" width="160" relative="1" as="geometry">
            <mxPoint x="60" y="-227.5894039735099" as="sourcePoint" />
            <mxPoint x="565" y="17.21854304635758" as="targetPoint" />
            <mxPoint y="1" as="offset" />
            <Array as="points">
              <mxPoint x="445" y="-280" />
              <mxPoint x="640" y="-280" />
              <mxPoint x="644" y="-280" />
            </Array>
          </mxGeometry>
        </mxCell>
        <mxCell id="p8qPXEf4PS3Dpe8iqj9y-116" value="d" style="endArrow=diamondThin;endFill=1;endSize=24;html=1;exitX=0.23;exitY=-0.003;exitDx=0;exitDy=0;exitPerimeter=0;entryX=0.357;entryY=1.064;entryDx=0;entryDy=0;entryPerimeter=0;jumpStyle=arc;jumpSize=18;" parent="WIyWlLk6GJQsqaUBKTNV-1" source="th5yOO53ETZ3JEMIR0LH-24" target="p8qPXEf4PS3Dpe8iqj9y-108" edge="1">
          <mxGeometry x="0.0023" y="3" width="160" relative="1" as="geometry">
            <mxPoint x="560" y="240" as="sourcePoint" />
            <mxPoint x="-40" y="80" as="targetPoint" />
            <Array as="points">
              <mxPoint x="561" y="140" />
              <mxPoint x="400" y="140" />
            </Array>
            <mxPoint as="offset" />
          </mxGeometry>
        </mxCell>
        <mxCell id="p8qPXEf4PS3Dpe8iqj9y-117" value="targets : vector" style="edgeLabel;html=1;align=center;verticalAlign=middle;resizable=0;points=[];" parent="p8qPXEf4PS3Dpe8iqj9y-116" vertex="1" connectable="0">
          <mxGeometry x="-0.4118" y="4" relative="1" as="geometry">
            <mxPoint x="-39.19999999999999" y="-519" as="offset" />
          </mxGeometry>
        </mxCell>
        <mxCell id="vB8Np_NBV5jCZkLpVjF9-25" style="edgeStyle=orthogonalEdgeStyle;rounded=0;orthogonalLoop=1;jettySize=auto;html=1;" edge="1" parent="WIyWlLk6GJQsqaUBKTNV-1" source="vB8Np_NBV5jCZkLpVjF9-0">
          <mxGeometry relative="1" as="geometry">
            <mxPoint x="770" y="-950" as="targetPoint" />
            <Array as="points">
              <mxPoint x="940" y="-950" />
            </Array>
          </mxGeometry>
        </mxCell>
        <mxCell id="vB8Np_NBV5jCZkLpVjF9-26" value="transform *" style="edgeLabel;html=1;align=center;verticalAlign=middle;resizable=0;points=[];" vertex="1" connectable="0" parent="vB8Np_NBV5jCZkLpVjF9-25">
          <mxGeometry x="-0.8691" y="-1" relative="1" as="geometry">
            <mxPoint x="9" y="5.000000000000013" as="offset" />
          </mxGeometry>
        </mxCell>
        <mxCell id="vB8Np_NBV5jCZkLpVjF9-27" style="edgeStyle=orthogonalEdgeStyle;rounded=0;orthogonalLoop=1;jettySize=auto;html=1;" edge="1" parent="WIyWlLk6GJQsqaUBKTNV-1" source="vB8Np_NBV5jCZkLpVjF9-0" target="p8qPXEf4PS3Dpe8iqj9y-28">
          <mxGeometry relative="1" as="geometry">
            <Array as="points">
              <mxPoint x="1250" y="-560" />
              <mxPoint x="1250" y="-560" />
            </Array>
          </mxGeometry>
        </mxCell>
        <mxCell id="vB8Np_NBV5jCZkLpVjF9-28" value="sprite *" style="edgeLabel;html=1;align=center;verticalAlign=middle;resizable=0;points=[];" vertex="1" connectable="0" parent="vB8Np_NBV5jCZkLpVjF9-27">
          <mxGeometry x="-0.3877" relative="1" as="geometry">
            <mxPoint x="-31.430000000000007" y="-20.000000000000004" as="offset" />
          </mxGeometry>
        </mxCell>
        <mxCell id="vB8Np_NBV5jCZkLpVjF9-31" style="edgeStyle=orthogonalEdgeStyle;rounded=0;jumpStyle=arc;jumpSize=18;orthogonalLoop=1;jettySize=auto;html=1;" edge="1" parent="WIyWlLk6GJQsqaUBKTNV-1" source="vB8Np_NBV5jCZkLpVjF9-0" target="p8qPXEf4PS3Dpe8iqj9y-97">
          <mxGeometry relative="1" as="geometry">
            <Array as="points">
              <mxPoint x="650" y="-548" />
              <mxPoint x="650" y="-548" />
            </Array>
          </mxGeometry>
        </mxCell>
        <mxCell id="vB8Np_NBV5jCZkLpVjF9-0" value="ActionsComponent" style="swimlane;fontStyle=0;align=center;verticalAlign=top;childLayout=stackLayout;horizontal=1;startSize=26;horizontalStack=0;resizeParent=1;resizeLast=0;collapsible=1;marginBottom=0;rounded=0;shadow=0;strokeWidth=1;" vertex="1" parent="WIyWlLk6GJQsqaUBKTNV-1">
          <mxGeometry x="770" y="-760" width="340" height="424" as="geometry">
            <mxRectangle x="130" y="380" width="160" height="26" as="alternateBounds" />
          </mxGeometry>
        </mxCell>
        <mxCell id="vB8Np_NBV5jCZkLpVjF9-6" value="- previousPos: Vector2D" style="text;align=left;verticalAlign=top;spacingLeft=4;spacingRight=4;overflow=hidden;rotatable=0;points=[[0,0.5],[1,0.5]];portConstraint=eastwest;" vertex="1" parent="vB8Np_NBV5jCZkLpVjF9-0">
          <mxGeometry y="26" width="340" height="26" as="geometry" />
        </mxCell>
        <mxCell id="vB8Np_NBV5jCZkLpVjF9-32" value="- gravity, jumping, falling: bool" style="text;align=left;verticalAlign=top;spacingLeft=4;spacingRight=4;overflow=hidden;rotatable=0;points=[[0,0.5],[1,0.5]];portConstraint=eastwest;" vertex="1" parent="vB8Np_NBV5jCZkLpVjF9-0">
          <mxGeometry y="52" width="340" height="26" as="geometry" />
        </mxCell>
        <mxCell id="vB8Np_NBV5jCZkLpVjF9-34" value="- jumpStartPos: int" style="text;align=left;verticalAlign=top;spacingLeft=4;spacingRight=4;overflow=hidden;rotatable=0;points=[[0,0.5],[1,0.5]];portConstraint=eastwest;" vertex="1" parent="vB8Np_NBV5jCZkLpVjF9-0">
          <mxGeometry y="78" width="340" height="26" as="geometry" />
        </mxCell>
        <mxCell id="vB8Np_NBV5jCZkLpVjF9-7" value="" style="line;html=1;strokeWidth=1;align=left;verticalAlign=middle;spacingTop=-1;spacingLeft=3;spacingRight=3;rotatable=0;labelPosition=right;points=[];portConstraint=eastwest;" vertex="1" parent="vB8Np_NBV5jCZkLpVjF9-0">
          <mxGeometry y="104" width="340" height="8" as="geometry" />
        </mxCell>
        <mxCell id="vB8Np_NBV5jCZkLpVjF9-8" value="+ ActionsComponent()" style="text;align=left;verticalAlign=top;spacingLeft=4;spacingRight=4;overflow=hidden;rotatable=0;points=[[0,0.5],[1,0.5]];portConstraint=eastwest;fontStyle=0" vertex="1" parent="vB8Np_NBV5jCZkLpVjF9-0">
          <mxGeometry y="112" width="340" height="26" as="geometry" />
        </mxCell>
        <mxCell id="vB8Np_NBV5jCZkLpVjF9-9" value="+ init()" style="text;align=left;verticalAlign=top;spacingLeft=4;spacingRight=4;overflow=hidden;rotatable=0;points=[[0,0.5],[1,0.5]];portConstraint=eastwest;" vertex="1" parent="vB8Np_NBV5jCZkLpVjF9-0">
          <mxGeometry y="138" width="340" height="26" as="geometry" />
        </mxCell>
        <mxCell id="vB8Np_NBV5jCZkLpVjF9-10" value="+ update()" style="text;align=left;verticalAlign=top;spacingLeft=4;spacingRight=4;overflow=hidden;rotatable=0;points=[[0,0.5],[1,0.5]];portConstraint=eastwest;" vertex="1" parent="vB8Np_NBV5jCZkLpVjF9-0">
          <mxGeometry y="164" width="340" height="26" as="geometry" />
        </mxCell>
        <mxCell id="vB8Np_NBV5jCZkLpVjF9-11" value="+ draw()" style="text;align=left;verticalAlign=top;spacingLeft=4;spacingRight=4;overflow=hidden;rotatable=0;points=[[0,0.5],[1,0.5]];portConstraint=eastwest;fontStyle=0" vertex="1" parent="vB8Np_NBV5jCZkLpVjF9-0">
          <mxGeometry y="190" width="340" height="26" as="geometry" />
        </mxCell>
        <mxCell id="vB8Np_NBV5jCZkLpVjF9-12" value="+ walk(direction : int)" style="text;align=left;verticalAlign=top;spacingLeft=4;spacingRight=4;overflow=hidden;rotatable=0;points=[[0,0.5],[1,0.5]];portConstraint=eastwest;fontStyle=0" vertex="1" parent="vB8Np_NBV5jCZkLpVjF9-0">
          <mxGeometry y="216" width="340" height="26" as="geometry" />
        </mxCell>
        <mxCell id="vB8Np_NBV5jCZkLpVjF9-18" value="+ jumpProcess()" style="text;align=left;verticalAlign=top;spacingLeft=4;spacingRight=4;overflow=hidden;rotatable=0;points=[[0,0.5],[1,0.5]];portConstraint=eastwest;fontStyle=0" vertex="1" parent="vB8Np_NBV5jCZkLpVjF9-0">
          <mxGeometry y="242" width="340" height="26" as="geometry" />
        </mxCell>
        <mxCell id="vB8Np_NBV5jCZkLpVjF9-19" value="+ jumpStart()" style="text;align=left;verticalAlign=top;spacingLeft=4;spacingRight=4;overflow=hidden;rotatable=0;points=[[0,0.5],[1,0.5]];portConstraint=eastwest;fontStyle=0" vertex="1" parent="vB8Np_NBV5jCZkLpVjF9-0">
          <mxGeometry y="268" width="340" height="26" as="geometry" />
        </mxCell>
        <mxCell id="vB8Np_NBV5jCZkLpVjF9-20" value="+ shootProjectile( [...] )" style="text;align=left;verticalAlign=top;spacingLeft=4;spacingRight=4;overflow=hidden;rotatable=0;points=[[0,0.5],[1,0.5]];portConstraint=eastwest;fontStyle=0" vertex="1" parent="vB8Np_NBV5jCZkLpVjF9-0">
          <mxGeometry y="294" width="340" height="26" as="geometry" />
        </mxCell>
        <mxCell id="vB8Np_NBV5jCZkLpVjF9-21" value="+ setWeapon(weapon : WeaponComponent*)" style="text;align=left;verticalAlign=top;spacingLeft=4;spacingRight=4;overflow=hidden;rotatable=0;points=[[0,0.5],[1,0.5]];portConstraint=eastwest;fontStyle=0" vertex="1" parent="vB8Np_NBV5jCZkLpVjF9-0">
          <mxGeometry y="320" width="340" height="26" as="geometry" />
        </mxCell>
        <mxCell id="vB8Np_NBV5jCZkLpVjF9-17" value="" style="endArrow=block;endSize=16;endFill=0;html=1;" edge="1" parent="WIyWlLk6GJQsqaUBKTNV-1" source="vB8Np_NBV5jCZkLpVjF9-0" target="th5yOO53ETZ3JEMIR0LH-56">
          <mxGeometry x="-0.0604" y="43" width="160" relative="1" as="geometry">
            <mxPoint x="1680" y="-280" as="sourcePoint" />
            <mxPoint x="1272.4133333333334" y="79" as="targetPoint" />
            <mxPoint y="1" as="offset" />
            <Array as="points">
              <mxPoint x="940" y="-280" />
              <mxPoint x="645" y="-280" />
            </Array>
          </mxGeometry>
        </mxCell>
      </root>
    </mxGraphModel>
  </diagram>
</mxfile>
